<svg id="alpha" xmlns="http://www.w3.org/2000/svg" width="179.881" height="206.966" viewBox="0 0 179.881 206.966">
  <path id="Path_8222" data-name="Path 8222" d="M139.332,142.025V73.1c0-38.7-30.639-69.955-68.132-69.955S3.068,34.609,3.068,73.1v48.016c.2,27.94,22.576,50.707,49.789,50.707A48.2,48.2,0,0,0,82.892,161.48a4.37,4.37,0,0,0,.807-6,4.109,4.109,0,0,0-5.846-.828,40.842,40.842,0,0,1-24.995,8.692c-22.979,0-41.726-19.248-41.726-42.842V73.1c0-33.943,26.809-61.469,59.868-61.469S130.866,39.162,130.866,73.1v68.92a90.6,90.6,0,0,0,7.257,35.6,3.947,3.947,0,0,0,3.83,2.483,3.723,3.723,0,0,0,1.613-.414,4.573,4.573,0,0,0,2.217-5.588A82.781,82.781,0,0,1,139.332,142.025Z" transform="translate(15.279 15.685)" fill="#252dff"/>
  <path id="Path_8223" data-name="Path 8223" d="M105.914,131.928V57.42C105.914,29.273,83.539,6.3,56.125,6.3S6.135,29.273,6.135,57.42v47.4c0,18.006,14.11,32.493,31.647,32.493s31.647-14.487,31.647-32.493V57.627a13.605,13.605,0,0,0-13.3-13.66,13.605,13.605,0,0,0-13.3,13.66v47.189a5.041,5.041,0,1,1-10.078,0V57.42c0-13.246,10.481-24.008,23.382-24.008S79.508,44.174,79.508,57.42v80.1a90.6,90.6,0,0,0,7.257,35.6,3.948,3.948,0,0,0,3.83,2.484,3.723,3.723,0,0,0,1.613-.414,4.574,4.574,0,0,0,2.217-5.588,82.78,82.78,0,0,1-6.451-32.079V57.42c0-17.8-14.11-32.494-31.647-32.494S24.68,39.414,24.68,57.42v47.4a13.605,13.605,0,0,0,13.3,13.66,13.605,13.605,0,0,0,13.3-13.66V57.627a5.041,5.041,0,1,1,10.078,0v47.189c0,13.246-10.482,24.008-23.382,24.008S14.6,118.062,14.6,104.816V57.42c0-23.594,18.746-42.842,41.726-42.842S98.053,33.826,98.053,57.42v74.508a90.6,90.6,0,0,0,7.257,35.6,4.36,4.36,0,0,0,5.442,2.276,4.572,4.572,0,0,0,2.218-5.588A72.339,72.339,0,0,1,105.914,131.928Z" transform="translate(30.548 31.368)" fill="#252dff"/>
  <path id="Path_8224" data-name="Path 8224" d="M179.6,184.2a82.792,82.792,0,0,1-6.451-32.08V89c-.2-49.258-38.9-89-86.677-89S0,39.738,0,88.789v48.017c.2,38.289,30.841,69.541,68.132,69.541a69.532,69.532,0,0,0,32.05-8.071,4.2,4.2,0,0,0,1.613-5.8,3.981,3.981,0,0,0-5.644-1.656,58.339,58.339,0,0,1-28.019,7.244c-33.058,0-59.867-27.526-59.867-61.469V88.789c0-44.291,35.074-80.3,78.211-80.3s78.211,36.012,78.211,80.3v63.125a90.6,90.6,0,0,0,7.257,35.6,3.947,3.947,0,0,0,3.83,2.483,3.723,3.723,0,0,0,1.613-.414A4.241,4.241,0,0,0,179.6,184.2Z" transform="translate(0)" fill="#252dff"/>
</svg>
